<?xml version="1.0" encoding="UTF-8" standalone="no"?><svg xmlns="http://www.w3.org/2000/svg" viewBox="0 0 135.5 135.5"><g transform="translate(253.2 890.9)"><path fill="#fff" d="M-185.6-882.5c-1 0-2 .5-2.8 1.2l-17.4 16a4.4 4.4 0 00-.3 6.3c1.7 1.8 4.5 2 6.3.3l14.4-13.3 14.4 13.3a4.4 4.4 0 006.2-.3 4.4 4.4 0 00-.3-6.2l-17.4-16c-.8-.9-2-1.3-3-1.3zM-203-788.7c-1.1 0-2.2.5-3 1.4a4.4 4.4 0 00.2 6.2l17.4 16.1a4.4 4.4 0 006 0l17.3-16a4.4 4.4 0 00.3-6.3 4.4 4.4 0 00-6.2-.3l-14.4 13.4-14.4-13.4c-1-.8-2-1.2-3.2-1.1z" color="#000" font-family="sans-serif" font-weight="400" overflow="visible" style="line-height:normal;font-variant-ligatures:normal;font-variant-position:normal;font-variant-caps:normal;font-variant-numeric:normal;font-variant-alternates:normal;font-variant-east-asian:normal;font-feature-settings:normal;font-variation-settings:normal;text-indent:0;text-align:start;text-decoration-line:none;text-decoration-style:solid;text-decoration-color:#000;text-transform:none;text-orientation:mixed;white-space:normal;shape-padding:0;shape-margin:0;inline-size:0;isolation:auto;mix-blend-mode:normal;solid-color:#000;solid-opacity:1"/><circle cx="-185.4" cy="-823.1" r="16" fill="#fff" fill-rule="evenodd"/><g color="#000" font-family="sans-serif" font-weight="400"><path fill="#fff" d="M-128.5-883.4l-122 111.7 8.2 8.8 121.9-111.7z" overflow="visible" style="line-height:normal;font-variant-ligatures:normal;font-variant-position:normal;font-variant-caps:normal;font-variant-numeric:normal;font-variant-alternates:normal;font-variant-east-asian:normal;font-feature-settings:normal;font-variation-settings:normal;text-indent:0;text-align:start;text-decoration-line:none;text-decoration-style:solid;text-decoration-color:#000;text-transform:none;text-orientation:mixed;white-space:normal;shape-padding:0;shape-margin:0;inline-size:0;isolation:auto;mix-blend-mode:normal;solid-color:#000;solid-opacity:1"/><path fill="#545b62" d="M-128.6-886.2a2.8 2.8 0 00-1.8.7l-122 111.8a2.8 2.8 0 000 3.9l8 8.8a2.8 2.8 0 004 .2l121.8-111.7a2.8 2.8 0 00.2-4l-8-8.8a2.8 2.8 0 00-2.2-.9zm-.1 6.7l4.3 4.8-117.8 108-4.3-4.8z" overflow="visible" style="line-height:normal;font-variant-ligatures:normal;font-variant-position:normal;font-variant-caps:normal;font-variant-numeric:normal;font-variant-alternates:normal;font-variant-east-asian:normal;font-feature-settings:normal;font-variation-settings:normal;text-indent:0;text-align:start;text-decoration-line:none;text-decoration-style:solid;text-decoration-color:#000;text-transform:none;text-orientation:mixed;white-space:normal;shape-padding:0;shape-margin:0;inline-size:0;isolation:auto;mix-blend-mode:normal;solid-color:#000;solid-opacity:1"/></g></g></svg>
